<?xml version="1.0" standalone="no"?>
<!DOCTYPE svg PUBLIC "-//W3C//DTD SVG 20010904//EN"
 "http://www.w3.org/TR/2001/REC-SVG-20010904/DTD/svg10.dtd">
<svg version="1.0" xmlns="http://www.w3.org/2000/svg"
 width="244.000000pt" height="245.000000pt" viewBox="0 0 244.000000 245.000000"
 preserveAspectRatio="xMidYMid meet">

<g transform="translate(0.000000,245.000000) scale(0.100000,-0.100000)"
fill="#000000" stroke="none">
<path d="M1045 2404 c-56 -9 -195 -54 -232 -76 -129 -74 -227 -183 -278 -310
-27 -67 -29 -83 -30 -198 0 -114 3 -131 28 -190 61 -143 142 -232 317 -348
114 -76 485 -292 500 -292 5 0 10 -3 12 -8 2 -4 36 -27 77 -52 103 -62 170
-130 214 -219 33 -66 37 -82 37 -150 0 -63 -5 -86 -29 -138 -35 -74 -100 -142
-168 -176 -61 -31 -178 -57 -254 -57 -82 0 -221 34 -304 75 -188 92 -275 214
-336 473 -22 89 -23 92 -51 92 l-28 0 0 -380 0 -380 28 0 c24 0 29 6 41 45 29
99 70 99 401 -6 102 -33 110 -34 280 -34 156 0 183 3 248 23 116 37 198 87
289 177 98 97 143 182 169 318 17 84 17 93 -1 185 -23 124 -75 226 -155 309
-88 90 -187 155 -510 333 -185 101 -202 112 -314 186 -160 105 -236 212 -236
331 0 52 6 73 38 135 30 59 49 82 100 120 78 60 140 78 258 78 122 0 182 -14
277 -63 168 -86 280 -237 317 -427 25 -129 30 -140 61 -140 l29 0 -2 383 -3
382 -26 3 c-23 3 -29 -3 -43 -40 -41 -101 -78 -109 -234 -48 -155 60 -244 82
-357 85 -55 2 -113 1 -130 -1z"/>
</g>
</svg>
